<mxfile host="app.diagrams.net" modified="2023-12-12T18:46:45.719Z" agent="Mozilla/5.0 (Windows NT 10.0; Win64; x64) AppleWebKit/537.36 (KHTML, like Gecko) Chrome/118.0.5993.731 YaBrowser/23.11.1.731 Yowser/2.5 Safari/537.36" etag="dRSKG4ZKAaLVBdTKaIMy" version="22.1.7" type="device">
  <diagram id="onA2VM0ke9PM5qHIyAdz" name="Страница — 1">
    <mxGraphModel dx="1751" dy="537" grid="1" gridSize="10" guides="1" tooltips="1" connect="1" arrows="1" fold="1" page="1" pageScale="1" pageWidth="827" pageHeight="1169" math="0" shadow="0">
      <root>
        <mxCell id="0" />
        <mxCell id="1" parent="0" />
        <mxCell id="1lmrmKGu_N5sYzmFphA3-1" value="Стартотвая страница" style="rounded=0;whiteSpace=wrap;html=1;" parent="1" vertex="1">
          <mxGeometry x="-779.9999999999998" y="908.5" width="147.37" height="56.5" as="geometry" />
        </mxCell>
        <mxCell id="1lmrmKGu_N5sYzmFphA3-5" value="Поиск (без входа в систему)" style="rounded=0;whiteSpace=wrap;html=1;" parent="1" vertex="1">
          <mxGeometry x="-770" y="1158" width="110" height="44" as="geometry" />
        </mxCell>
        <mxCell id="1lmrmKGu_N5sYzmFphA3-26" value="Поиск (с входом в систему)" style="rounded=0;whiteSpace=wrap;html=1;" parent="1" vertex="1">
          <mxGeometry x="-820" y="1672" width="117.5" height="46" as="geometry" />
        </mxCell>
        <mxCell id="1lmrmKGu_N5sYzmFphA3-139" value="Вход в систему" style="rounded=0;whiteSpace=wrap;html=1;" parent="1" vertex="1">
          <mxGeometry x="-311" y="1147" width="110" height="44.5" as="geometry" />
        </mxCell>
        <mxCell id="1lmrmKGu_N5sYzmFphA3-150" value="Восстановление пароля" style="rounded=0;whiteSpace=wrap;html=1;" parent="1" vertex="1">
          <mxGeometry x="-310" y="895.5" width="110" height="51.5" as="geometry" />
        </mxCell>
        <mxCell id="1lmrmKGu_N5sYzmFphA3-159" value="Регистрация" style="rounded=0;whiteSpace=wrap;html=1;" parent="1" vertex="1">
          <mxGeometry x="-310" y="1295.5" width="110" height="40.5" as="geometry" />
        </mxCell>
        <mxCell id="1lmrmKGu_N5sYzmFphA3-161" style="edgeStyle=orthogonalEdgeStyle;rounded=0;orthogonalLoop=1;jettySize=auto;html=1;exitX=0.5;exitY=1;exitDx=0;exitDy=0;" parent="1" edge="1">
          <mxGeometry relative="1" as="geometry">
            <mxPoint x="-186.5" y="1645.5" as="sourcePoint" />
            <mxPoint x="-186.5" y="1645.5" as="targetPoint" />
          </mxGeometry>
        </mxCell>
        <mxCell id="1lmrmKGu_N5sYzmFphA3-169" value="" style="ellipse;fillColor=strokeColor;html=1;" parent="1" vertex="1">
          <mxGeometry x="-721.3100000000001" y="841" width="30" height="30" as="geometry" />
        </mxCell>
        <mxCell id="1lmrmKGu_N5sYzmFphA3-170" value="" style="endArrow=classic;html=1;rounded=0;exitX=0.5;exitY=1;exitDx=0;exitDy=0;entryX=0.5;entryY=0;entryDx=0;entryDy=0;" parent="1" source="1lmrmKGu_N5sYzmFphA3-169" target="1lmrmKGu_N5sYzmFphA3-1" edge="1">
          <mxGeometry width="50" height="50" relative="1" as="geometry">
            <mxPoint x="-1877.37" y="1113.5" as="sourcePoint" />
            <mxPoint x="-1827.37" y="1063.5" as="targetPoint" />
          </mxGeometry>
        </mxCell>
        <mxCell id="1lmrmKGu_N5sYzmFphA3-171" value="" style="endArrow=classic;html=1;rounded=0;exitX=0.25;exitY=1;exitDx=0;exitDy=0;entryX=0.25;entryY=0;entryDx=0;entryDy=0;" parent="1" source="1lmrmKGu_N5sYzmFphA3-1" edge="1" target="1lmrmKGu_N5sYzmFphA3-5">
          <mxGeometry width="50" height="50" relative="1" as="geometry">
            <mxPoint x="-1365.37" y="1255.5" as="sourcePoint" />
            <mxPoint x="-1411.37" y="995.5" as="targetPoint" />
          </mxGeometry>
        </mxCell>
        <mxCell id="1lmrmKGu_N5sYzmFphA3-173" value="" style="endArrow=classic;html=1;rounded=0;entryX=0.25;entryY=0;entryDx=0;entryDy=0;exitX=0;exitY=0.5;exitDx=0;exitDy=0;edgeStyle=orthogonalEdgeStyle;" parent="1" edge="1" target="1lmrmKGu_N5sYzmFphA3-26" source="1lmrmKGu_N5sYzmFphA3-1">
          <mxGeometry width="50" height="50" relative="1" as="geometry">
            <mxPoint x="-1563" y="953.5699999999999" as="sourcePoint" />
            <mxPoint x="-1730.5" y="953.5699999999999" as="targetPoint" />
          </mxGeometry>
        </mxCell>
        <mxCell id="1lmrmKGu_N5sYzmFphA3-175" value="" style="endArrow=classic;html=1;rounded=0;exitX=1;exitY=0.5;exitDx=0;exitDy=0;entryX=0;entryY=0.25;entryDx=0;entryDy=0;" parent="1" source="1lmrmKGu_N5sYzmFphA3-1" target="1lmrmKGu_N5sYzmFphA3-139" edge="1">
          <mxGeometry width="50" height="50" relative="1" as="geometry">
            <mxPoint x="-845.37" y="1165.5" as="sourcePoint" />
            <mxPoint x="-1015.37" y="745.5" as="targetPoint" />
          </mxGeometry>
        </mxCell>
        <mxCell id="1lmrmKGu_N5sYzmFphA3-181" value="" style="endArrow=classic;html=1;rounded=0;exitX=1;exitY=0.5;exitDx=0;exitDy=0;entryX=0;entryY=0.5;entryDx=0;entryDy=0;" parent="1" source="1lmrmKGu_N5sYzmFphA3-150" target="1lmrmKGu_N5sYzmFphA3-182" edge="1">
          <mxGeometry width="50" height="50" relative="1" as="geometry">
            <mxPoint x="110" y="1152.5" as="sourcePoint" />
            <mxPoint x="110" y="1016.5" as="targetPoint" />
          </mxGeometry>
        </mxCell>
        <mxCell id="1lmrmKGu_N5sYzmFphA3-182" value="Ввод нового пароля" style="rounded=0;whiteSpace=wrap;html=1;" parent="1" vertex="1">
          <mxGeometry x="-80" y="895.5" width="127" height="51.5" as="geometry" />
        </mxCell>
        <mxCell id="1lmrmKGu_N5sYzmFphA3-189" value="" style="endArrow=classic;html=1;rounded=0;exitX=0.25;exitY=1;exitDx=0;exitDy=0;entryX=1;entryY=0.25;entryDx=0;entryDy=0;edgeStyle=orthogonalEdgeStyle;" parent="1" source="1lmrmKGu_N5sYzmFphA3-182" target="1lmrmKGu_N5sYzmFphA3-139" edge="1">
          <mxGeometry width="50" height="50" relative="1" as="geometry">
            <mxPoint x="-53.5" y="904.63" as="sourcePoint" />
            <mxPoint x="101.5" y="904.63" as="targetPoint" />
          </mxGeometry>
        </mxCell>
        <mxCell id="1lmrmKGu_N5sYzmFphA3-194" value="" style="endArrow=classic;html=1;rounded=0;exitX=0.25;exitY=1;exitDx=0;exitDy=0;edgeStyle=orthogonalEdgeStyle;entryX=0.25;entryY=0;entryDx=0;entryDy=0;" parent="1" source="1lmrmKGu_N5sYzmFphA3-159" edge="1" target="ChB97osfjEcxkAINvo-N-6">
          <mxGeometry width="50" height="50" relative="1" as="geometry">
            <mxPoint x="-310" y="1788.5" as="sourcePoint" />
            <mxPoint x="-284" y="1845.5" as="targetPoint" />
          </mxGeometry>
        </mxCell>
        <mxCell id="1lmrmKGu_N5sYzmFphA3-202" value="" style="endArrow=classic;html=1;rounded=0;exitX=0;exitY=0.25;exitDx=0;exitDy=0;entryX=0;entryY=0.75;entryDx=0;entryDy=0;edgeStyle=orthogonalEdgeStyle;" parent="1" source="1lmrmKGu_N5sYzmFphA3-159" target="1lmrmKGu_N5sYzmFphA3-5" edge="1">
          <mxGeometry width="50" height="50" relative="1" as="geometry">
            <mxPoint x="130" y="1605.5" as="sourcePoint" />
            <mxPoint x="-80" y="1330" as="targetPoint" />
          </mxGeometry>
        </mxCell>
        <mxCell id="1lmrmKGu_N5sYzmFphA3-205" value="" style="endArrow=none;html=1;rounded=0;exitX=0.5;exitY=0;exitDx=0;exitDy=0;entryX=0.5;entryY=1;entryDx=0;entryDy=0;endFill=0;" parent="1" source="1lmrmKGu_N5sYzmFphA3-159" target="1lmrmKGu_N5sYzmFphA3-139" edge="1">
          <mxGeometry width="50" height="50" relative="1" as="geometry">
            <mxPoint x="146" y="1674" as="sourcePoint" />
            <mxPoint x="251" y="1674" as="targetPoint" />
          </mxGeometry>
        </mxCell>
        <mxCell id="1lmrmKGu_N5sYzmFphA3-222" value="" style="endArrow=classic;html=1;rounded=0;exitX=0;exitY=0.5;exitDx=0;exitDy=0;entryX=0.75;entryY=0;entryDx=0;entryDy=0;" parent="1" source="1lmrmKGu_N5sYzmFphA3-150" target="1lmrmKGu_N5sYzmFphA3-5" edge="1">
          <mxGeometry width="50" height="50" relative="1" as="geometry">
            <mxPoint x="-759.5" y="701.25" as="sourcePoint" />
            <mxPoint x="-523.536880020104" y="750.1745480681395" as="targetPoint" />
          </mxGeometry>
        </mxCell>
        <mxCell id="ChB97osfjEcxkAINvo-N-3" value="" style="endArrow=none;html=1;rounded=0;exitX=0;exitY=0.75;exitDx=0;exitDy=0;entryX=1;entryY=0.5;entryDx=0;entryDy=0;endFill=0;" edge="1" parent="1" source="1lmrmKGu_N5sYzmFphA3-139" target="1lmrmKGu_N5sYzmFphA3-5">
          <mxGeometry width="50" height="50" relative="1" as="geometry">
            <mxPoint x="248" y="1128" as="sourcePoint" />
            <mxPoint x="-660" y="1177" as="targetPoint" />
          </mxGeometry>
        </mxCell>
        <mxCell id="ChB97osfjEcxkAINvo-N-4" value="" style="endArrow=classic;html=1;rounded=0;exitX=0.5;exitY=1;exitDx=0;exitDy=0;entryX=0.25;entryY=1;entryDx=0;entryDy=0;edgeStyle=orthogonalEdgeStyle;" edge="1" parent="1" source="1lmrmKGu_N5sYzmFphA3-182" target="1lmrmKGu_N5sYzmFphA3-5">
          <mxGeometry width="50" height="50" relative="1" as="geometry">
            <mxPoint x="-270" y="1293" as="sourcePoint" />
            <mxPoint x="-1171" y="1600" as="targetPoint" />
          </mxGeometry>
        </mxCell>
        <mxCell id="ChB97osfjEcxkAINvo-N-6" value="Просмотр своего аккаунта" style="rounded=0;whiteSpace=wrap;html=1;" vertex="1" parent="1">
          <mxGeometry x="-310" y="1446" width="110" height="47" as="geometry" />
        </mxCell>
        <mxCell id="ChB97osfjEcxkAINvo-N-7" value="Просмотр информации о пользователе (без входа)" style="rounded=0;whiteSpace=wrap;html=1;" vertex="1" parent="1">
          <mxGeometry x="-530" y="1341" width="100" height="76" as="geometry" />
        </mxCell>
        <mxCell id="ChB97osfjEcxkAINvo-N-9" value="" style="endArrow=none;html=1;rounded=0;exitX=0;exitY=0.25;exitDx=0;exitDy=0;entryX=0.75;entryY=1;entryDx=0;entryDy=0;endFill=0;" edge="1" parent="1" source="ChB97osfjEcxkAINvo-N-7" target="1lmrmKGu_N5sYzmFphA3-5">
          <mxGeometry width="50" height="50" relative="1" as="geometry">
            <mxPoint x="-750" y="1363" as="sourcePoint" />
            <mxPoint x="-568" y="1517" as="targetPoint" />
          </mxGeometry>
        </mxCell>
        <mxCell id="ChB97osfjEcxkAINvo-N-10" value="" style="endArrow=classic;html=1;rounded=0;exitX=1;exitY=0.25;exitDx=0;exitDy=0;entryX=0.25;entryY=1;entryDx=0;entryDy=0;" edge="1" parent="1" source="ChB97osfjEcxkAINvo-N-7" target="1lmrmKGu_N5sYzmFphA3-139">
          <mxGeometry width="50" height="50" relative="1" as="geometry">
            <mxPoint x="-691.31" y="1453.5" as="sourcePoint" />
            <mxPoint x="-390" y="1520" as="targetPoint" />
          </mxGeometry>
        </mxCell>
        <mxCell id="ChB97osfjEcxkAINvo-N-11" value="" style="endArrow=classic;html=1;rounded=0;exitX=1;exitY=0.25;exitDx=0;exitDy=0;entryX=1;entryY=0.75;entryDx=0;entryDy=0;edgeStyle=orthogonalEdgeStyle;" edge="1" parent="1" source="ChB97osfjEcxkAINvo-N-6" target="1lmrmKGu_N5sYzmFphA3-139">
          <mxGeometry width="50" height="50" relative="1" as="geometry">
            <mxPoint x="-10" y="1431" as="sourcePoint" />
            <mxPoint x="-9" y="1535" as="targetPoint" />
            <Array as="points">
              <mxPoint x="-180" y="1458" />
              <mxPoint x="-180" y="1180" />
            </Array>
          </mxGeometry>
        </mxCell>
        <mxCell id="ChB97osfjEcxkAINvo-N-12" value="Редактирование своего аккаунта" style="rounded=0;whiteSpace=wrap;html=1;" vertex="1" parent="1">
          <mxGeometry x="-80" y="1446" width="110" height="47" as="geometry" />
        </mxCell>
        <mxCell id="ChB97osfjEcxkAINvo-N-13" value="" style="endArrow=none;html=1;rounded=0;exitX=1;exitY=0.5;exitDx=0;exitDy=0;entryX=0;entryY=0.5;entryDx=0;entryDy=0;startArrow=none;startFill=0;endFill=0;" edge="1" parent="1" source="ChB97osfjEcxkAINvo-N-6" target="ChB97osfjEcxkAINvo-N-12">
          <mxGeometry width="50" height="50" relative="1" as="geometry">
            <mxPoint x="30" y="1505" as="sourcePoint" />
            <mxPoint x="30" y="1615" as="targetPoint" />
          </mxGeometry>
        </mxCell>
        <mxCell id="ChB97osfjEcxkAINvo-N-16" value="&lt;span style=&quot;color: rgb(0, 0, 0); font-family: Helvetica; font-size: 12px; font-style: normal; font-variant-ligatures: normal; font-variant-caps: normal; font-weight: 400; letter-spacing: normal; orphans: 2; text-align: center; text-indent: 0px; text-transform: none; widows: 2; word-spacing: 0px; -webkit-text-stroke-width: 0px; background-color: rgb(251, 251, 251); text-decoration-thickness: initial; text-decoration-style: initial; text-decoration-color: initial; float: none; display: inline !important;&quot;&gt;Просмотр уведомлений&lt;/span&gt;" style="rounded=0;whiteSpace=wrap;html=1;" vertex="1" parent="1">
          <mxGeometry x="-340" y="1672" width="117" height="47" as="geometry" />
        </mxCell>
        <mxCell id="ChB97osfjEcxkAINvo-N-17" value="Отправка сообщений" style="rounded=0;whiteSpace=wrap;html=1;" vertex="1" parent="1">
          <mxGeometry x="-620" y="1840" width="116.5" height="51" as="geometry" />
        </mxCell>
        <mxCell id="ChB97osfjEcxkAINvo-N-18" value="Диалоги" style="rounded=0;whiteSpace=wrap;html=1;" vertex="1" parent="1">
          <mxGeometry x="-590" y="1672" width="120" height="47" as="geometry" />
        </mxCell>
        <mxCell id="ChB97osfjEcxkAINvo-N-19" value="Сохраненные пользователи" style="rounded=0;whiteSpace=wrap;html=1;" vertex="1" parent="1">
          <mxGeometry x="-110" y="1672" width="120" height="47" as="geometry" />
        </mxCell>
        <mxCell id="ChB97osfjEcxkAINvo-N-20" value="Просмотр информации о пользователе (с входом)" style="rounded=0;whiteSpace=wrap;html=1;" vertex="1" parent="1">
          <mxGeometry x="-270" y="1840" width="137.5" height="51" as="geometry" />
        </mxCell>
        <mxCell id="ChB97osfjEcxkAINvo-N-35" value="" style="endArrow=none;html=1;rounded=0;exitX=0.25;exitY=1;exitDx=0;exitDy=0;entryX=0.25;entryY=0;entryDx=0;entryDy=0;startArrow=none;startFill=0;endFill=0;" edge="1" parent="1" source="1lmrmKGu_N5sYzmFphA3-26" target="ChB97osfjEcxkAINvo-N-17">
          <mxGeometry width="50" height="50" relative="1" as="geometry">
            <mxPoint x="-490" y="1820" as="sourcePoint" />
            <mxPoint x="-440" y="1770" as="targetPoint" />
          </mxGeometry>
        </mxCell>
        <mxCell id="ChB97osfjEcxkAINvo-N-38" value="" style="endArrow=classic;html=1;rounded=0;exitX=0.75;exitY=1;exitDx=0;exitDy=0;entryX=0.75;entryY=0;entryDx=0;entryDy=0;" edge="1" parent="1" source="ChB97osfjEcxkAINvo-N-12" target="ChB97osfjEcxkAINvo-N-19">
          <mxGeometry width="50" height="50" relative="1" as="geometry">
            <mxPoint x="100" y="1681" as="sourcePoint" />
            <mxPoint x="-53" y="1630" as="targetPoint" />
          </mxGeometry>
        </mxCell>
        <mxCell id="ChB97osfjEcxkAINvo-N-40" value="" style="endArrow=none;html=1;rounded=0;exitX=0.5;exitY=1;exitDx=0;exitDy=0;startArrow=classic;startFill=1;entryX=0.5;entryY=0;entryDx=0;entryDy=0;endFill=0;" edge="1" parent="1" source="ChB97osfjEcxkAINvo-N-16" target="ChB97osfjEcxkAINvo-N-20">
          <mxGeometry width="50" height="50" relative="1" as="geometry">
            <mxPoint x="-310" y="1750" as="sourcePoint" />
            <mxPoint x="-390" y="1840" as="targetPoint" />
          </mxGeometry>
        </mxCell>
        <mxCell id="ChB97osfjEcxkAINvo-N-41" value="" style="endArrow=none;html=1;rounded=0;exitX=1;exitY=0.5;exitDx=0;exitDy=0;entryX=0;entryY=0.5;entryDx=0;entryDy=0;startArrow=none;startFill=0;endFill=0;" edge="1" parent="1" source="1lmrmKGu_N5sYzmFphA3-26" target="ChB97osfjEcxkAINvo-N-18">
          <mxGeometry width="50" height="50" relative="1" as="geometry">
            <mxPoint x="-480" y="1730" as="sourcePoint" />
            <mxPoint x="-430" y="1680" as="targetPoint" />
          </mxGeometry>
        </mxCell>
        <mxCell id="ChB97osfjEcxkAINvo-N-42" value="" style="endArrow=none;html=1;rounded=0;exitX=1;exitY=0.5;exitDx=0;exitDy=0;entryX=0;entryY=0.5;entryDx=0;entryDy=0;startArrow=none;startFill=0;endFill=0;" edge="1" parent="1" source="ChB97osfjEcxkAINvo-N-18" target="ChB97osfjEcxkAINvo-N-16">
          <mxGeometry width="50" height="50" relative="1" as="geometry">
            <mxPoint x="-572" y="1760" as="sourcePoint" />
            <mxPoint x="-460" y="1761" as="targetPoint" />
          </mxGeometry>
        </mxCell>
        <mxCell id="ChB97osfjEcxkAINvo-N-43" value="" style="endArrow=none;html=1;rounded=0;exitX=1;exitY=0.5;exitDx=0;exitDy=0;entryX=0;entryY=0.5;entryDx=0;entryDy=0;startArrow=none;startFill=0;endFill=0;" edge="1" parent="1" source="ChB97osfjEcxkAINvo-N-16" target="ChB97osfjEcxkAINvo-N-19">
          <mxGeometry width="50" height="50" relative="1" as="geometry">
            <mxPoint x="-460" y="1706" as="sourcePoint" />
            <mxPoint x="-330" y="1706" as="targetPoint" />
          </mxGeometry>
        </mxCell>
        <mxCell id="ChB97osfjEcxkAINvo-N-44" value="" style="endArrow=none;html=1;rounded=0;exitX=0.75;exitY=0;exitDx=0;exitDy=0;entryX=0.25;entryY=0;entryDx=0;entryDy=0;edgeStyle=orthogonalEdgeStyle;startArrow=none;startFill=0;endFill=0;" edge="1" parent="1" source="1lmrmKGu_N5sYzmFphA3-26" target="ChB97osfjEcxkAINvo-N-16">
          <mxGeometry width="50" height="50" relative="1" as="geometry">
            <mxPoint x="-673.5" y="1640" as="sourcePoint" />
            <mxPoint x="-561.5" y="1641" as="targetPoint" />
            <Array as="points">
              <mxPoint x="-732" y="1661" />
              <mxPoint x="-311" y="1661" />
            </Array>
          </mxGeometry>
        </mxCell>
        <mxCell id="ChB97osfjEcxkAINvo-N-46" value="" style="endArrow=none;html=1;rounded=0;entryX=0.75;entryY=1;entryDx=0;entryDy=0;edgeStyle=orthogonalEdgeStyle;startArrow=none;startFill=0;endFill=0;" edge="1" parent="1" target="ChB97osfjEcxkAINvo-N-19">
          <mxGeometry width="50" height="50" relative="1" as="geometry">
            <mxPoint x="-730" y="1719" as="sourcePoint" />
            <mxPoint x="-430" y="1680" as="targetPoint" />
            <Array as="points">
              <mxPoint x="-730" y="1750" />
              <mxPoint x="-20" y="1750" />
            </Array>
          </mxGeometry>
        </mxCell>
        <mxCell id="ChB97osfjEcxkAINvo-N-49" value="" style="endArrow=none;html=1;rounded=0;exitX=0.75;exitY=1;exitDx=0;exitDy=0;entryX=0.25;entryY=1;entryDx=0;entryDy=0;edgeStyle=orthogonalEdgeStyle;startArrow=none;startFill=0;endFill=0;" edge="1" parent="1" source="ChB97osfjEcxkAINvo-N-18" target="ChB97osfjEcxkAINvo-N-19">
          <mxGeometry width="50" height="50" relative="1" as="geometry">
            <mxPoint x="-480" y="1730" as="sourcePoint" />
            <mxPoint x="-430" y="1680" as="targetPoint" />
          </mxGeometry>
        </mxCell>
        <mxCell id="ChB97osfjEcxkAINvo-N-50" value="" style="endArrow=none;html=1;rounded=0;exitX=1;exitY=0.5;exitDx=0;exitDy=0;entryX=0.5;entryY=1;entryDx=0;entryDy=0;startArrow=none;startFill=0;endFill=0;" edge="1" parent="1" source="ChB97osfjEcxkAINvo-N-20" target="ChB97osfjEcxkAINvo-N-19">
          <mxGeometry width="50" height="50" relative="1" as="geometry">
            <mxPoint x="-181" y="1805" as="sourcePoint" />
            <mxPoint x="-290" y="1926" as="targetPoint" />
          </mxGeometry>
        </mxCell>
        <mxCell id="ChB97osfjEcxkAINvo-N-52" value="" style="endArrow=classic;html=1;rounded=0;exitX=0.25;exitY=0;exitDx=0;exitDy=0;entryX=0.5;entryY=1;entryDx=0;entryDy=0;" edge="1" parent="1" source="ChB97osfjEcxkAINvo-N-20" target="ChB97osfjEcxkAINvo-N-18">
          <mxGeometry width="50" height="50" relative="1" as="geometry">
            <mxPoint x="-347" y="1850" as="sourcePoint" />
            <mxPoint x="-242" y="1729" as="targetPoint" />
          </mxGeometry>
        </mxCell>
        <mxCell id="ChB97osfjEcxkAINvo-N-53" value="" style="endArrow=none;html=1;rounded=0;exitX=0;exitY=0.25;exitDx=0;exitDy=0;entryX=0.5;entryY=1;entryDx=0;entryDy=0;startArrow=none;startFill=0;endFill=0;" edge="1" parent="1" source="ChB97osfjEcxkAINvo-N-20" target="1lmrmKGu_N5sYzmFphA3-26">
          <mxGeometry width="50" height="50" relative="1" as="geometry">
            <mxPoint x="-416" y="1850" as="sourcePoint" />
            <mxPoint x="-520" y="1729" as="targetPoint" />
          </mxGeometry>
        </mxCell>
        <mxCell id="ChB97osfjEcxkAINvo-N-54" value="" style="endArrow=classic;html=1;rounded=0;exitX=0.5;exitY=0;exitDx=0;exitDy=0;entryX=0.25;entryY=1;entryDx=0;entryDy=0;" edge="1" parent="1" source="ChB97osfjEcxkAINvo-N-17" target="ChB97osfjEcxkAINvo-N-18">
          <mxGeometry width="50" height="50" relative="1" as="geometry">
            <mxPoint x="-416" y="1850" as="sourcePoint" />
            <mxPoint x="-520" y="1729" as="targetPoint" />
          </mxGeometry>
        </mxCell>
        <mxCell id="ChB97osfjEcxkAINvo-N-55" value="" style="endArrow=classic;html=1;rounded=0;exitX=1;exitY=0.25;exitDx=0;exitDy=0;entryX=0.25;entryY=1;entryDx=0;entryDy=0;" edge="1" parent="1" source="ChB97osfjEcxkAINvo-N-17" target="ChB97osfjEcxkAINvo-N-16">
          <mxGeometry width="50" height="50" relative="1" as="geometry">
            <mxPoint x="-751" y="1850" as="sourcePoint" />
            <mxPoint x="-550" y="1729" as="targetPoint" />
          </mxGeometry>
        </mxCell>
        <mxCell id="ChB97osfjEcxkAINvo-N-56" value="" style="endArrow=classic;html=1;rounded=0;exitX=1;exitY=0.5;exitDx=0;exitDy=0;entryX=0;entryY=0.75;entryDx=0;entryDy=0;" edge="1" parent="1" source="ChB97osfjEcxkAINvo-N-17" target="ChB97osfjEcxkAINvo-N-19">
          <mxGeometry width="50" height="50" relative="1" as="geometry">
            <mxPoint x="-722" y="1850" as="sourcePoint" />
            <mxPoint x="-301" y="1729" as="targetPoint" />
          </mxGeometry>
        </mxCell>
        <mxCell id="ChB97osfjEcxkAINvo-N-58" value="" style="endArrow=classic;html=1;rounded=0;exitX=0.5;exitY=1;exitDx=0;exitDy=0;entryX=1;entryY=0.75;entryDx=0;entryDy=0;" edge="1" parent="1" source="ChB97osfjEcxkAINvo-N-12" target="ChB97osfjEcxkAINvo-N-16">
          <mxGeometry width="50" height="50" relative="1" as="geometry">
            <mxPoint x="12" y="1503" as="sourcePoint" />
            <mxPoint x="-10" y="1682" as="targetPoint" />
          </mxGeometry>
        </mxCell>
        <mxCell id="ChB97osfjEcxkAINvo-N-59" value="" style="endArrow=classic;html=1;rounded=0;exitX=0.25;exitY=1;exitDx=0;exitDy=0;entryX=1;entryY=0.25;entryDx=0;entryDy=0;" edge="1" parent="1" source="ChB97osfjEcxkAINvo-N-12" target="ChB97osfjEcxkAINvo-N-18">
          <mxGeometry width="50" height="50" relative="1" as="geometry">
            <mxPoint x="-15" y="1503" as="sourcePoint" />
            <mxPoint x="-213" y="1694" as="targetPoint" />
          </mxGeometry>
        </mxCell>
        <mxCell id="ChB97osfjEcxkAINvo-N-60" value="" style="endArrow=classic;html=1;rounded=0;exitX=0;exitY=0.75;exitDx=0;exitDy=0;entryX=1;entryY=0.75;entryDx=0;entryDy=0;" edge="1" parent="1" source="ChB97osfjEcxkAINvo-N-12" target="1lmrmKGu_N5sYzmFphA3-26">
          <mxGeometry width="50" height="50" relative="1" as="geometry">
            <mxPoint x="-43" y="1503" as="sourcePoint" />
            <mxPoint x="-460" y="1694" as="targetPoint" />
          </mxGeometry>
        </mxCell>
        <mxCell id="ChB97osfjEcxkAINvo-N-61" value="" style="endArrow=none;startArrow=none;html=1;rounded=0;entryX=0;entryY=0.25;entryDx=0;entryDy=0;exitX=0.5;exitY=0;exitDx=0;exitDy=0;startFill=0;endFill=0;" edge="1" parent="1" source="1lmrmKGu_N5sYzmFphA3-26" target="ChB97osfjEcxkAINvo-N-6">
          <mxGeometry width="50" height="50" relative="1" as="geometry">
            <mxPoint x="-430" y="1730" as="sourcePoint" />
            <mxPoint x="-380" y="1680" as="targetPoint" />
          </mxGeometry>
        </mxCell>
        <mxCell id="ChB97osfjEcxkAINvo-N-62" value="" style="endArrow=none;startArrow=none;html=1;rounded=0;entryX=0;entryY=0.75;entryDx=0;entryDy=0;exitX=0.5;exitY=0;exitDx=0;exitDy=0;startFill=0;endFill=0;" edge="1" parent="1" source="ChB97osfjEcxkAINvo-N-18" target="ChB97osfjEcxkAINvo-N-6">
          <mxGeometry width="50" height="50" relative="1" as="geometry">
            <mxPoint x="-692" y="1694" as="sourcePoint" />
            <mxPoint x="-300" y="1491" as="targetPoint" />
          </mxGeometry>
        </mxCell>
        <mxCell id="ChB97osfjEcxkAINvo-N-64" value="" style="endArrow=none;startArrow=none;html=1;rounded=0;entryX=0.5;entryY=1;entryDx=0;entryDy=0;exitX=0.5;exitY=0;exitDx=0;exitDy=0;startFill=0;endFill=0;" edge="1" parent="1" source="ChB97osfjEcxkAINvo-N-16" target="ChB97osfjEcxkAINvo-N-6">
          <mxGeometry width="50" height="50" relative="1" as="geometry">
            <mxPoint x="-520" y="1682" as="sourcePoint" />
            <mxPoint x="-272" y="1503" as="targetPoint" />
          </mxGeometry>
        </mxCell>
        <mxCell id="ChB97osfjEcxkAINvo-N-65" value="" style="endArrow=none;startArrow=none;html=1;rounded=0;entryX=1;entryY=0.75;entryDx=0;entryDy=0;exitX=0.5;exitY=0;exitDx=0;exitDy=0;startFill=0;endFill=0;" edge="1" parent="1" source="ChB97osfjEcxkAINvo-N-19" target="ChB97osfjEcxkAINvo-N-6">
          <mxGeometry width="50" height="50" relative="1" as="geometry">
            <mxPoint x="-301" y="1682" as="sourcePoint" />
            <mxPoint x="-245" y="1503" as="targetPoint" />
          </mxGeometry>
        </mxCell>
        <mxCell id="ChB97osfjEcxkAINvo-N-66" value="" style="endArrow=none;html=1;rounded=0;entryX=0.5;entryY=0;entryDx=0;entryDy=0;exitX=0.5;exitY=1;exitDx=0;exitDy=0;" edge="1" parent="1" source="1lmrmKGu_N5sYzmFphA3-150" target="1lmrmKGu_N5sYzmFphA3-139">
          <mxGeometry width="50" height="50" relative="1" as="geometry">
            <mxPoint x="-430" y="1150" as="sourcePoint" />
            <mxPoint x="-380" y="1100" as="targetPoint" />
          </mxGeometry>
        </mxCell>
        <mxCell id="ChB97osfjEcxkAINvo-N-67" value="" style="endArrow=none;html=1;rounded=0;exitX=0.75;exitY=1;exitDx=0;exitDy=0;startArrow=classic;startFill=1;entryX=0.75;entryY=0;entryDx=0;entryDy=0;endFill=0;" edge="1" parent="1" source="ChB97osfjEcxkAINvo-N-6" target="ChB97osfjEcxkAINvo-N-20">
          <mxGeometry width="50" height="50" relative="1" as="geometry">
            <mxPoint x="-271" y="1729" as="sourcePoint" />
            <mxPoint x="-191" y="1850" as="targetPoint" />
          </mxGeometry>
        </mxCell>
        <mxCell id="ChB97osfjEcxkAINvo-N-68" value="" style="endArrow=classic;html=1;rounded=0;exitX=0.75;exitY=0;exitDx=0;exitDy=0;entryX=0.25;entryY=1;entryDx=0;entryDy=0;" edge="1" parent="1" source="ChB97osfjEcxkAINvo-N-17" target="ChB97osfjEcxkAINvo-N-6">
          <mxGeometry width="50" height="50" relative="1" as="geometry">
            <mxPoint x="-523" y="1850" as="sourcePoint" />
            <mxPoint x="-301" y="1729" as="targetPoint" />
          </mxGeometry>
        </mxCell>
      </root>
    </mxGraphModel>
  </diagram>
</mxfile>
